<?xml version="1.0" encoding="UTF-8"?>
<svg xmlns="http://www.w3.org/2000/svg" width="303" height="69" viewBox="0 0 303 69" fill="none">
  <path d="M260.937 22.0438H240V43.3789H260.937V22.0438Z" fill="#00A579"></path>
  <path d="M302.813 22.0438H281.876V43.3789H302.813V22.0438Z" fill="#00A579"></path>
  <path d="M281.876 22.0438H260.938V43.3789H281.876V22.0438Z" fill="#2761AB"></path>
  <path d="M281.876 43.3788H260.938V64.7138H281.876V43.3788Z" fill="#00B0EA"></path>
  <path d="M281.876 0.70874H260.938V22.0451H281.876V0.70874Z" fill="#00B0EA"></path>
  <path d="M12.3386 31.8833C12.3386 32.2962 12.3386 32.7172 12.3386 33.1496C12.337 33.6127 12.2766 34.0207 12.1829 34.4158C12.1097 34.8563 11.989 35.2255 11.8126 35.619C11.6362 35.9963 11.4073 36.3266 11.0958 36.6488C10.4617 37.2965 9.70051 37.7354 8.87889 37.9718C8.01754 38.2082 7.19592 38.3021 6.31709 38.3021C5.92933 38.3021 5.51137 38.2876 5.0648 38.2552C4.64843 38.2098 4.24159 38.1515 3.80456 38.0511C3.40249 37.9491 3.02903 37.8082 2.6349 37.635C2.2519 37.4455 1.93089 37.2464 1.61463 36.9435C1.19985 36.6278 0.902669 36.2651 0.699251 35.8521C0.495832 35.4878 0.336912 35.0457 0.233613 34.6215C0.111244 34.1972 0.0746927 33.7584 0.0444978 33.305C0.0158921 32.8338 0 32.3593 0 31.8833V22.3538H3.92852V31.8833C3.92852 32.2168 3.94441 32.6638 3.95712 33.1285C3.95712 33.5932 4.08744 33.9624 4.26702 34.2847C4.49268 34.7267 4.83913 34.9939 5.26504 35.1364C5.69095 35.2789 6.12957 35.3647 6.58885 35.3647C6.91781 35.3647 7.35167 35.2886 7.79823 35.1672C8.2448 35.0457 8.58966 34.8093 8.78831 34.5065C9.05371 34.1438 9.17925 33.7341 9.20786 33.2305C9.23329 32.7269 9.23328 32.2784 9.23328 31.8833V22.3538H12.337V31.8833H12.3386Z" fill="#1A1A18"></path>
  <path d="M15.1943 26.4279H18.3298V28.4067H18.3902C18.7017 27.6391 19.1562 27.108 19.633 26.7356C20.1368 26.3648 20.8249 26.1931 21.6513 26.1931C22.2011 26.1931 22.7351 26.3032 23.2039 26.504C23.6982 26.6676 24.1352 26.9947 24.461 27.4691C24.6088 27.7007 24.7566 27.9339 24.836 28.248C24.9123 28.5217 24.9902 28.8099 25.0379 29.1111C25.0665 29.4139 25.0697 29.7167 25.0792 30.0195C25.0887 30.3223 25.0935 30.6203 25.0935 30.8858V38.0674H21.807V31.8234C21.807 31.5416 21.807 31.2291 21.807 30.8858C21.807 30.5231 21.7609 30.196 21.6545 29.9029C21.5941 29.6098 21.451 29.3556 21.2238 29.1856C21.0315 28.9848 20.7216 28.8811 20.2734 28.8811C19.9763 28.8811 19.7124 28.9653 19.4788 29.1273C19.2087 29.2876 19.0132 29.5127 18.8781 29.7572C18.7097 30.1005 18.6191 30.4421 18.5619 30.7789C18.5492 31.0947 18.5205 31.4412 18.5205 31.8234V38.0674H15.1943V26.4279Z" fill="#1A1A18"></path>
  <path d="M31.1481 25.3883H27.8584V22.1028H31.1481V25.3883ZM31.1481 38.0657H27.8584V26.4263H31.1481V38.0657Z" fill="#1A1A18"></path>
  <path d="M39.5807 38.0657H36.949L33.0205 26.4263H36.5501L38.7305 33.7989L40.9777 26.4263H43.4807L39.5807 38.0657Z" fill="#1A1A18"></path>
  <path d="M48.1897 32.8338L48.1722 33.407C48.1722 34.1 48.3439 34.6878 48.7173 35.1817C49.1115 35.6756 49.6391 35.8991 50.3622 35.8991C50.6276 35.8991 50.8548 35.8375 51.1218 35.7647C51.3411 35.6788 51.5779 35.5299 51.7591 35.3679C51.9434 35.206 52.0976 35.0457 52.2247 34.8125C52.3439 34.5729 52.3805 34.3429 52.3805 34.0806L55.4667 34.283C55.4667 34.4012 55.4174 34.5696 55.3284 34.7818C55.268 35.0425 55.1552 35.2951 54.9756 35.5882C54.7976 35.8813 54.5561 36.1889 54.2986 36.5112C54.0412 36.8334 53.709 37.1216 53.3101 37.4131C52.9462 37.6657 52.506 37.8924 51.9816 38.0511C51.4587 38.2195 50.893 38.3021 50.2414 38.3021C49.4086 38.3021 48.6315 38.1758 47.91 37.8908C47.2362 37.5767 46.6371 37.1767 46.1571 36.6472C45.6613 36.1517 45.2624 35.5202 45.005 34.7947C44.7459 34.0952 44.6172 33.3017 44.6172 32.4046C44.6172 31.5642 44.7316 30.7643 44.9605 29.9838C45.2354 29.2244 45.5644 28.5605 46.0395 28.0229C46.5147 27.4545 47.1027 27.0059 47.7956 26.674C48.4996 26.3485 49.2752 26.1898 50.1699 26.1898C50.982 26.1898 51.7591 26.3566 52.5171 26.7177C53.2593 27.0804 53.8727 27.6051 54.359 28.2447C54.8437 28.9264 55.1648 29.668 55.3221 30.4583C55.4794 31.2485 55.5255 32.0403 55.5064 32.8305H48.1897V32.8338ZM52.2247 30.8258C52.2104 30.5036 52.1564 30.2008 52.069 29.9174C52.0277 29.634 51.9132 29.3555 51.7591 29.1564C51.6129 28.9151 51.4492 28.7289 51.1917 28.5977C50.9724 28.4665 50.6721 28.4066 50.3002 28.4066C49.9251 28.4066 49.6137 28.4617 49.3657 28.5815C49.1178 28.7224 48.8858 28.8843 48.7173 29.1256C48.5489 29.3539 48.4297 29.6033 48.3455 29.8867C48.2422 30.1684 48.1897 30.4826 48.1738 30.8242H52.2247V30.8258Z" fill="#1A1A18"></path>
  <path d="M60.9894 26.4279V28.5961H61.0482C61.1182 28.2933 61.2262 27.9905 61.3788 27.6877C61.498 27.3865 61.6617 27.1323 61.846 26.8813C62.0288 26.6659 62.2846 26.491 62.5421 26.3485C62.7995 26.2012 63.1158 26.1834 63.4924 26.1898L64.0375 26.2336V29.6211C63.4034 29.5822 62.9314 29.6681 62.5421 29.898C62.1559 30.1393 61.8698 30.4324 61.6903 30.7757C61.5012 31.1675 61.3804 31.5918 61.3057 32.0954C61.2262 32.6006 61.2246 33.1188 61.2246 33.6191V38.0609H57.9111V26.4214H60.9894V26.4279Z" fill="#1A1A18"></path>
  <path d="M72.5538 29.9175C72.4013 29.3556 72.1295 28.9702 71.7529 28.7224C71.3286 28.4747 70.8582 28.363 70.3433 28.363C70.1748 28.363 69.9809 28.384 69.7648 28.4051C69.5947 28.4148 69.3977 28.4844 69.2197 28.5638C69.0417 28.6366 68.9018 28.7241 68.8033 28.8795C68.6762 29.0139 68.6317 29.1888 68.6317 29.3718C68.6317 29.7539 68.8033 29.9871 69.1402 30.1442C69.4501 30.298 69.9062 30.3903 70.3846 30.4599C70.909 30.5409 71.4716 30.6186 72.0707 30.7077C72.654 30.7757 73.1848 30.936 73.7092 31.2064C74.2336 31.4299 74.6452 31.812 74.9901 32.3059C75.3365 32.7998 75.5066 33.4653 75.5066 34.343C75.5066 34.9486 75.3493 35.5202 75.0759 36.0303C74.8185 36.5614 74.4227 36.9938 73.9539 37.3419C73.4422 37.7208 72.8653 37.9734 72.2439 38.0949C71.6353 38.2406 71.0171 38.3038 70.3846 38.3038C69.7902 38.3038 69.2213 38.2568 68.6746 38.1418C68.0818 38.0285 67.5876 37.8374 67.1251 37.5767C66.6579 37.2917 66.2415 36.9436 65.8951 36.4966C65.5725 36.074 65.3261 35.5202 65.1768 34.8871L68.0564 34.4466C68.0882 34.7494 68.209 35.0296 68.3663 35.2061C68.5236 35.4036 68.7398 35.5607 68.9877 35.6805C69.2245 35.8117 69.4644 35.8748 69.7616 35.9429C70.027 35.9979 70.2845 36.0028 70.5435 36.0028C70.6929 36.0028 70.8947 35.9979 71.1506 35.9882C71.3588 35.9493 71.6019 35.8748 71.7815 35.8117C72.0072 35.7016 72.1947 35.6012 72.3425 35.4587C72.4919 35.3178 72.5554 35.1316 72.5554 34.9016C72.5554 34.7332 72.5411 34.5746 72.4426 34.4175C72.3917 34.3057 72.2598 34.228 72.1422 34.139C72.023 34.0969 71.888 34.0337 71.7418 33.9932C71.5924 33.9544 71.443 33.9414 71.2952 33.9414C71.0886 33.9301 70.8502 33.8864 70.534 33.8167C70.2177 33.7827 69.8903 33.7147 69.555 33.6256C69.2181 33.5835 68.9018 33.4929 68.6047 33.4524C68.3075 33.3617 68.0596 33.3099 67.9007 33.2467C67.2078 32.9941 66.6595 32.5974 66.2447 32.0452C65.8474 31.4769 65.6265 30.8275 65.6265 30.1102C65.6265 29.3653 65.76 28.7645 66.0397 28.2609C66.3416 27.7752 66.6849 27.3784 67.1506 27.074C67.6146 26.7712 68.1533 26.5315 68.7191 26.3988C69.3007 26.2676 69.9189 26.1931 70.534 26.1931C71.6273 26.1931 72.5602 26.4344 73.3357 26.8991C74.0715 27.3639 74.623 28.1444 75.0362 29.2439L72.5538 29.9175Z" fill="#1A1A18"></path>
  <path d="M81.1309 25.3883H77.8301V22.1028H81.1309V25.3883ZM81.1309 38.0657H77.8301V26.4263H81.1309V38.0657Z" fill="#1A1A18"></path>
  <path d="M90.5562 29.0803H88.1089V33.7293C88.1089 34.1001 88.1279 34.4158 88.1677 34.6685C88.2058 34.8919 88.2424 35.0927 88.3711 35.2239C88.4505 35.3648 88.5999 35.4813 88.8161 35.5234C89.0052 35.572 89.3071 35.6076 89.6345 35.6076C89.7839 35.6076 89.9619 35.5979 90.1685 35.5769C90.3751 35.5574 90.5578 35.5267 90.7438 35.5234V38.0544C90.4068 38.1386 90.089 38.2131 89.6933 38.2422C89.3167 38.2908 88.9988 38.3054 88.6953 38.3054C88.2169 38.3054 87.6845 38.2665 87.1426 38.1726C86.5642 38.0544 86.1001 37.8747 85.7489 37.5735C85.5073 37.3532 85.323 37.1103 85.2038 36.8658C85.0846 36.6262 84.9702 36.3137 84.932 36.0173C84.8542 35.7226 84.8176 35.4263 84.8176 35.1235C84.8176 34.8207 84.8176 34.5276 84.8176 34.2458V29.0835H82.9551V26.4004H84.9606L85.2483 23.0015L88.1105 22.7505V26.4004H90.5578V29.0803H90.5562Z" fill="#1A1A18"></path>
  <path d="M99.8642 38.0657C99.7657 37.7629 99.7149 37.4666 99.7149 37.1735C99.6926 36.8788 99.6862 36.5825 99.7069 36.278C99.2222 36.9436 98.693 37.4585 98.1638 37.8002C97.5964 38.1434 96.9163 38.3021 96.0374 38.3021C95.5241 38.3021 95.0601 38.239 94.6119 38.0932C94.186 37.9718 93.8189 37.7419 93.5074 37.4795C93.18 37.2172 92.8956 36.8626 92.7303 36.4642C92.5475 36.0287 92.4268 35.5429 92.4268 35.0166C92.4268 34.1195 92.6874 33.42 93.1626 32.8306C93.6377 32.2589 94.2559 31.8396 95.0188 31.5562C95.6815 31.2647 96.4236 31.0947 97.2341 31.0429C98.0573 30.9441 98.8201 30.8923 99.5512 30.7919V30.5279C99.5512 30.2867 99.5416 29.9855 99.5226 29.7215C99.5019 29.4592 99.4081 29.192 99.2508 29.0058C99.0982 28.7953 98.9044 28.6593 98.6294 28.5605C98.399 28.4876 98.1654 28.4309 97.8809 28.4309C97.3835 28.4309 96.9242 28.5621 96.4999 28.873C96.1232 29.137 95.9103 29.5499 95.9103 30.1409L92.7716 29.8252C92.8892 29.1467 93.0831 28.5605 93.4502 28.086C93.8141 27.6116 94.2321 27.2553 94.7454 26.9784C95.2142 26.6627 95.8006 26.4991 96.4141 26.3485C97.0275 26.2465 97.6314 26.1882 98.2258 26.1882C98.5023 26.1882 98.809 26.1979 99.1459 26.2481C99.4812 26.2983 99.8118 26.3469 100.139 26.4392C100.465 26.5056 100.776 26.6416 101.074 26.7615C101.371 26.8829 101.619 27.0497 101.865 27.2602C102.143 27.4837 102.351 27.7687 102.509 28.0375C102.661 28.3014 102.766 28.588 102.819 28.9005C102.874 29.2131 102.914 29.5418 102.914 29.8835C102.914 30.2057 102.914 30.549 102.914 30.9101V36.3266C102.914 36.6294 102.933 36.9452 102.971 37.2334C102.971 37.5071 103.043 37.7856 103.128 38.0673H99.8642V38.0657ZM99.548 32.5164C99.2317 32.518 98.8519 32.5844 98.4546 32.6735C98.0112 32.7156 97.6441 32.8338 97.2579 32.9909C96.921 33.1496 96.608 33.3358 96.3235 33.624C96.0851 33.8701 95.9659 34.2231 95.9659 34.6361C95.9659 35.0895 96.0851 35.4781 96.3235 35.7501C96.6095 36.0254 96.9369 36.1582 97.4026 36.1582C97.7585 36.1582 98.0748 36.095 98.3529 35.9266C98.631 35.755 98.8964 35.5202 99.0951 35.2044C99.3223 34.8563 99.451 34.479 99.4908 34.1082C99.5289 33.7811 99.5496 33.3746 99.5496 32.9812V32.5164H99.548Z" fill="#1A1A18"></path>
  <path d="M112.05 29.0803H109.606V33.7293C109.606 34.1001 109.625 34.4158 109.647 34.6685C109.655 34.8919 109.738 35.0927 109.819 35.2239C109.946 35.3648 110.094 35.4813 110.269 35.5234C110.482 35.572 110.755 35.6076 111.13 35.6076C111.278 35.6076 111.456 35.5979 111.662 35.5769C111.823 35.5574 112.029 35.5267 112.238 35.5234V38.0544C111.901 38.1386 111.537 38.2131 111.187 38.2422C110.791 38.2908 110.447 38.3054 110.149 38.3054C109.663 38.3054 109.178 38.2665 108.595 38.1726C108.06 38.0544 107.594 37.8747 107.2 37.5735C107.001 37.3532 106.817 37.1103 106.696 36.8658C106.543 36.6262 106.458 36.3137 106.386 36.0173C106.35 35.7226 106.305 35.4263 106.296 35.1235C106.284 34.8207 106.281 34.5276 106.281 34.2458V29.0835H104.409V26.4004H106.408L106.696 23.0015L109.606 22.7505V26.4004H112.05V29.0803Z" fill="#1A1A18"></path>
  <path d="M120.838 29.9175C120.689 29.3556 120.426 28.9702 120.043 28.7224C119.625 28.4747 119.155 28.363 118.64 28.363C118.472 28.363 118.279 28.384 118.062 28.4051C117.869 28.4148 117.695 28.4844 117.517 28.5638C117.339 28.6366 117.199 28.7241 117.095 28.8795C116.952 29.0139 116.927 29.1888 116.927 29.3718C116.927 29.7539 117.095 29.9871 117.405 30.1442C117.744 30.298 118.179 30.3903 118.68 30.4599C119.203 30.5409 119.735 30.6186 120.353 30.7077C120.949 30.7757 121.48 30.936 122.004 31.2064C122.526 31.4299 122.941 31.812 123.287 32.3059C123.614 32.7998 123.769 33.4653 123.769 34.343C123.769 34.9486 123.63 35.5202 123.371 36.0303C123.114 36.5614 122.72 36.9938 122.235 37.3419C121.738 37.7208 121.142 37.9734 120.538 38.0949C119.932 38.2406 119.314 38.3038 118.681 38.3038C118.087 38.3038 117.518 38.2568 116.94 38.1418C116.38 38.0285 115.856 37.8374 115.387 37.5767C114.923 37.2917 114.538 36.9436 114.192 36.4966C113.846 36.074 113.621 35.5202 113.474 34.8871L116.318 34.4466C116.385 34.7494 116.484 35.0296 116.652 35.2061C116.821 35.4036 117.037 35.5607 117.256 35.6805C117.521 35.8117 117.76 35.8748 118.028 35.9429C118.324 35.9979 118.583 36.0028 118.84 36.0028C118.988 36.0028 119.19 35.9979 119.422 35.9882C119.654 35.9493 119.889 35.8748 120.077 35.8117C120.304 35.7016 120.492 35.6012 120.639 35.4587C120.789 35.3178 120.838 35.1316 120.838 34.9016C120.838 34.7332 120.821 34.5746 120.738 34.4175C120.663 34.3057 120.555 34.228 120.436 34.139C120.317 34.0969 120.182 34.0337 120.034 33.9932C119.886 33.9544 119.732 33.9414 119.578 33.9414C119.381 33.9301 119.111 33.8864 118.799 33.8167C118.489 33.7827 118.178 33.7147 117.846 33.6256C117.51 33.5835 117.192 33.4929 116.897 33.4524C116.598 33.3617 116.334 33.3099 116.164 33.2467C115.501 32.9941 114.934 32.5974 114.537 32.0452C114.14 31.4769 113.919 30.8275 113.919 30.1102C113.919 29.3653 114.052 28.7645 114.319 28.2609C114.612 27.7752 114.977 27.3784 115.443 27.074C115.907 26.7712 116.447 26.5315 117.011 26.3988C117.575 26.2676 118.179 26.1931 118.799 26.1931C119.916 26.1931 120.852 26.4344 121.593 26.8991C122.364 27.3639 122.914 28.1444 123.301 29.2439L120.838 29.9175Z" fill="#1A1A18"></path>
  <path d="M137.424 38.0658H133.701L131.3 32.8193L129.458 35.0895V38.0642H126.135V22.3506H129.459V31.7619L130.538 30.2381L133.703 26.4263H136.965L133.703 30.4001L137.424 38.0658Z" fill="#1A1A18"></path>
  <path d="M139.129 22.3538H142.407V38.0674H139.129V22.3538Z" fill="#1A1A18"></path>
  <path d="M148.649 25.3883H145.344V22.1028H148.649V25.3883ZM148.649 38.0657H145.344V26.4263H148.649V38.0657Z" fill="#1A1A18"></path>
  <path d="M151.471 26.4279H154.608V28.4067H154.656C154.976 27.6391 155.427 27.108 155.902 26.7356C156.415 26.3648 157.102 26.1931 157.917 26.1931C158.48 26.1931 159.003 26.3032 159.471 26.504C159.974 26.6676 160.395 26.9947 160.738 27.4691C160.886 27.7007 161.016 27.9339 161.11 28.248C161.183 28.5217 161.264 28.8099 161.313 29.1111C161.326 29.4139 161.345 29.7167 161.355 30.0195C161.364 30.3223 161.369 30.6203 161.369 30.8858V38.0674H158.071V31.8234C158.071 31.5416 158.071 31.2291 158.071 30.8858C158.071 30.5231 158.038 30.196 157.93 29.9029C157.869 29.6098 157.726 29.3556 157.499 29.1856C157.289 28.9848 156.98 28.8811 156.549 28.8811C156.25 28.8811 155.988 28.9653 155.737 29.1273C155.484 29.2876 155.281 29.5127 155.152 29.7572C154.983 30.1005 154.894 30.4421 154.836 30.7789C154.805 31.0947 154.794 31.4412 154.794 31.8234V38.0674H151.47V26.4279H151.471Z" fill="#1A1A18"></path>
  <path d="M167.434 25.3883H164.117V22.1028H167.434V25.3883ZM167.434 38.0657H164.117V26.4263H167.434V38.0657Z" fill="#1A1A18"></path>
  <path d="M181.664 38.0658H177.948L175.526 32.8193L173.688 35.0895V38.0642H170.379V22.3506H173.688V31.7619L174.781 30.2381L177.95 26.4263H181.197L177.95 30.4001L181.664 38.0658Z" fill="#1A1A18"></path>
  <path d="M190 38.0657V36.0869H189.941C189.684 36.8075 189.252 37.3759 188.691 37.7354C188.144 38.1192 187.458 38.3037 186.701 38.3037C186.092 38.3037 185.577 38.2212 185.118 38.0528C184.608 37.8941 184.219 37.5508 183.907 37.0051C183.594 36.4837 183.391 35.993 183.362 35.4295C183.332 34.8903 183.314 34.3349 183.314 33.7827V26.4279H186.645V33.7827C186.645 33.9916 186.661 34.2393 186.688 34.4304C186.701 34.6717 186.73 34.8822 186.819 35.0474C186.925 35.206 187.014 35.3631 187.21 35.457C187.349 35.5396 187.616 35.6044 187.912 35.6044C188.252 35.6044 188.591 35.5202 188.875 35.3097C189.18 35.0992 189.419 34.8369 189.552 34.4741C189.692 34.2312 189.754 33.9381 189.754 33.6224C189.754 33.3066 189.754 32.9892 189.754 32.6735V26.4263H193.048V38.0657H190Z" fill="#1A1A18"></path>
  <path d="M198.889 26.4279V28.2318H198.948C199.245 27.5258 199.687 27.0093 200.199 26.6757C200.71 26.3502 201.359 26.1915 202.142 26.1915C202.864 26.1915 203.492 26.3502 204.024 26.6757C204.477 27.0093 204.923 27.5258 205.278 28.2318C205.575 27.5258 205.979 27.0093 206.573 26.6757C207.186 26.3502 207.838 26.1915 208.588 26.1915C209.065 26.1915 209.631 26.3016 210.098 26.5024C210.603 26.666 211.023 26.9817 211.38 27.3947C211.541 27.6149 211.722 27.8788 211.829 28.1428C211.846 28.4067 211.914 28.7225 211.954 29.0237C211.992 29.3151 212.006 29.6131 211.997 29.9159C211.987 30.2187 211.983 30.5118 211.983 30.7935V38.0642H208.704V31.893C208.704 31.8007 208.704 31.6582 208.704 31.4688C208.704 31.2583 208.704 31.0931 208.704 30.8826C208.704 30.6721 208.699 30.4713 208.69 30.3013C208.679 30.1345 208.656 29.9855 208.617 29.8544C208.499 29.5111 208.367 29.2439 208.119 29.1241C207.806 29.0026 207.501 28.9184 207.185 28.9184C206.878 28.9184 206.571 29.022 206.312 29.184C206.053 29.3459 205.89 29.5337 205.737 29.8285C205.637 30.107 205.583 30.4551 205.564 30.8405C205.548 31.2518 205.538 31.5919 205.538 31.8947V38.0658H202.219V31.8947C202.219 31.5919 202.219 31.2599 202.219 30.936C202.219 30.5814 202.219 30.2559 202.128 29.9612C202.02 29.6681 201.91 29.3929 201.653 29.1953C201.468 29.0188 201.154 28.8876 200.706 28.8876C200.312 28.8876 199.976 29.0123 199.735 29.1953C199.499 29.367 199.363 29.6374 199.232 29.9305C199.115 30.2236 199.11 30.5507 199.101 30.9134C199.089 31.2502 199.085 31.5708 199.085 31.893V38.0642H195.731V26.4247H198.889V26.4279Z" fill="#1A1A18"></path>
  <path d="M97.3324 22.1108H94.4385V24.7438H97.3324V22.1108Z" fill="#1A1A18"></path>
  <path d="M101.307 22.1108H98.4434V24.7438H101.307V22.1108Z" fill="#1A1A18"></path>
  <path d="M3.81327 51.6642V54.8607H9.70127V57.8564H3.81327V61.3443H11.2539V64.361H0.234375V48.6475H11.2539V51.6642H3.81327Z" fill="#1A1A18"></path>
  <path d="M16.6482 52.722V54.8919H16.6848C16.777 54.5874 16.8723 54.2879 16.9947 53.9834C17.1504 53.679 17.3046 53.4264 17.481 53.1511C17.6876 52.9228 17.926 52.7836 18.2025 52.6168C18.4583 52.5196 18.7746 52.4791 19.1512 52.5196H19.6963V55.9201C19.0638 55.8796 18.5489 55.9995 18.2025 56.1954C17.8068 56.3897 17.5287 56.6828 17.3221 57.0763C17.1504 57.4682 16.9947 57.8973 16.9645 58.396C16.885 58.851 16.8469 59.4178 16.8469 59.9036V64.3615H13.5684V52.722H16.6482Z" fill="#1A1A18"></path>
  <path d="M21.9131 48.6462H25.2202V64.3598H21.9131V48.6462Z" fill="#1A1A18"></path>
  <path d="M34.9476 64.3614C34.849 64.0586 34.8331 63.7623 34.8029 63.4676C34.7743 63.1745 34.7696 62.8781 34.7886 62.5737C34.3039 63.2732 33.7747 63.7558 33.2503 64.0958C32.6782 64.4391 31.998 64.5622 31.1192 64.5622C30.6424 64.5622 30.1672 64.5363 29.7222 64.3905C29.2677 64.2238 28.9165 64.0375 28.5907 63.7752C28.2634 63.5113 28.0154 63.1583 27.8279 62.7178C27.6309 62.3276 27.5498 61.8385 27.5498 61.3139C27.5498 60.4265 27.7691 59.7173 28.2443 59.1619C28.7179 58.5287 29.3377 58.1368 30.0989 57.8551C30.7711 57.5798 31.5037 57.3936 32.346 57.2916C33.139 57.2624 33.913 57.1879 34.6329 57.0892V56.8268C34.6329 56.5839 34.6234 56.3151 34.6027 55.9978C34.5836 55.7079 34.5137 55.4861 34.3452 55.3015C34.1975 55.0489 33.9845 54.9549 33.7557 54.8448C33.4807 54.7363 33.2471 54.7331 32.9817 54.7331C32.4636 54.7331 32.0043 54.8594 31.5832 55.1234C31.2034 55.3873 30.9904 55.8488 30.9904 56.4123L27.8597 56.1208C27.9709 55.3954 28.1696 54.8238 28.5303 54.4076C28.8959 53.8975 29.3122 53.5041 29.8255 53.2304C30.3389 52.9567 30.8792 52.7932 31.4926 52.6458C32.1076 52.5195 32.71 52.5195 33.3059 52.5195C33.6015 52.5195 33.9114 52.5195 34.2261 52.5195C34.5614 52.5487 34.8935 52.6264 35.2193 52.7381C35.5467 52.8369 35.8566 52.8903 36.1538 53.0604C36.4509 53.1527 36.7036 53.3486 36.9452 53.5089C37.2233 53.7842 37.4601 54.0724 37.6079 54.3348C37.7557 54.5971 37.8447 54.8853 37.9241 55.1978C37.9543 55.5087 37.9941 55.8391 37.9941 56.1807C37.9941 56.503 37.9941 56.8447 37.9941 57.2074V62.6385C37.9941 62.9575 38.0131 63.2522 38.0529 63.5258C38.091 63.7995 38.1228 64.078 38.2404 64.3598H34.9476V64.3614ZM34.6313 58.8218C34.3135 58.8461 33.9352 58.8461 33.5379 58.9222C33.1359 59.0113 32.7274 59.157 32.3603 59.259C32.0028 59.4566 31.6913 59.6331 31.4291 59.8743C31.1668 60.1172 31.0492 60.4702 31.0492 60.9317C31.0492 61.3754 31.1684 61.7236 31.4291 62.0086C31.6913 62.3276 32.0504 62.4539 32.5145 62.4539C32.8419 62.4539 33.1565 62.347 33.4458 62.2223C33.7557 62.007 33.9781 61.7883 34.1863 61.4872C34.4056 61.1034 34.5344 60.7423 34.5741 60.4265C34.6122 60.0784 34.6329 59.6703 34.6329 59.2283V58.8218H34.6313Z" fill="#1A1A18"></path>
  <path d="M40.4707 52.7219H43.6078V54.7169H43.6666C43.9987 53.9332 44.4342 53.4004 44.93 53.028C45.4147 52.6588 46.1029 52.5195 46.9483 52.5195C47.4791 52.5195 48.0115 52.5487 48.501 52.7964C48.9745 52.9503 49.4275 53.2887 49.7421 53.7842C49.8979 53.9931 50.0409 54.2214 50.1124 54.4934C50.2078 54.7655 50.2666 55.0553 50.3142 55.3662C50.3619 55.682 50.3619 55.9994 50.3619 56.3152C50.3635 56.6309 50.3699 56.937 50.3699 57.1782V64.3614H47.0913V58.119C47.0913 57.8357 47.0913 57.5248 47.0913 57.1798C47.0913 56.8187 47.0373 56.49 46.9467 56.1969C46.8689 55.9055 46.7258 55.6852 46.4986 55.4343C46.319 55.2788 46.0027 55.1557 45.5498 55.1557C45.251 55.1557 44.9888 55.2594 44.76 55.3743C44.4835 55.5832 44.3086 55.7614 44.1545 56.0042C43.9987 56.3459 43.8954 56.6908 43.8446 57.0325C43.8255 57.3742 43.7969 57.7385 43.7969 58.1207V64.363H40.4723V52.7219H40.4707Z" fill="#1A1A18"></path>
  <path d="M52.7438 56.1225C52.7438 55.3971 52.9155 54.8254 53.2635 54.4093C53.6083 53.8992 54.0247 53.5057 54.5523 53.2321C55.0466 52.9584 55.6394 52.7949 56.256 52.6475C56.8694 52.5196 57.4447 52.5196 57.9803 52.5196C59.053 52.5196 60.0574 52.6426 61.0474 52.9843C61.1364 52.1164 61.3812 51.527 61.7657 51.2128C62.1567 50.9003 62.7781 50.6979 63.6203 50.6979C63.9557 50.6979 64.264 50.7351 64.5421 50.8145V52.9843C64.3943 52.9455 64.2497 52.9098 64.1114 52.8807C63.9732 52.8499 63.8285 52.837 63.6807 52.837C63.3645 52.837 63.0816 52.9406 62.786 53.1495C62.5365 53.2628 62.3839 53.5009 62.3251 53.8636C62.6414 54.2279 62.8925 54.5777 63.0308 54.9194C63.169 55.261 63.2421 55.6821 63.2421 56.1516C63.2421 56.8577 63.0864 57.4115 62.7733 57.8956C62.4459 58.3199 62.0025 58.6988 61.5353 58.9482C61.022 59.2008 60.4483 59.4518 59.8492 59.5052C59.2548 59.6558 58.7002 59.7303 58.1376 59.7303C57.8213 59.7303 57.5003 59.7109 57.1888 59.6704C56.8678 59.6331 56.5531 59.5813 56.2544 59.5214C56.0875 59.6396 55.9477 59.7902 55.8205 59.8728C55.7299 60.0525 55.6616 60.1772 55.6616 60.4266C55.6616 60.8411 55.8984 61.1358 56.3243 61.314C56.4721 61.3722 56.6596 61.3755 56.8773 61.3755C57.0681 61.382 57.308 61.4079 57.5178 61.4257C57.7737 61.4484 57.9739 61.4662 58.2107 61.4872C58.43 61.5083 58.6016 61.5164 58.7701 61.5164L60.2242 61.607C60.728 61.6475 61.2238 61.6961 61.7197 61.735C62.2441 61.8451 62.7002 62.0086 63.0864 62.2369C63.5202 62.4329 63.8556 62.7341 64.0939 63.147C64.3323 63.5599 64.4833 64.0408 64.4833 64.6853C64.4833 65.4917 64.2386 66.1249 63.7634 66.6657C63.2882 67.1628 62.7383 67.5887 62.0661 67.851C61.4336 68.0939 60.7598 68.3125 59.9827 68.3352C59.2357 68.4178 58.5428 68.468 57.8499 68.468C57.5528 68.468 57.1888 68.4583 56.7852 68.4372C56.3879 68.4162 55.9477 68.3724 55.5043 68.3352C55.0768 68.3287 54.6556 68.2251 54.2393 68.0858C53.7768 68.0227 53.424 67.8429 53.0871 67.6778C52.7518 67.4187 52.4927 67.1871 52.2655 66.8843C52.0652 66.5815 51.9492 66.188 51.9492 65.8026C51.9492 65.1727 52.1606 64.7015 52.5388 64.3485C52.9631 63.9971 53.424 63.7882 53.9294 63.6295C53.4955 63.4482 53.1538 63.1891 52.871 62.8555C52.6119 62.5219 52.4832 62.0669 52.4832 61.5779C52.4832 61.199 52.5309 60.8784 52.6866 60.6258C52.8281 60.3748 52.9965 60.1141 53.1872 59.8922C53.4129 59.7206 53.637 59.4906 53.9278 59.3951C54.2202 59.2056 54.492 59.1279 54.7685 58.9676C54.136 58.7441 53.6306 58.3733 53.3032 57.8989C52.9313 57.4212 52.7438 56.8463 52.7438 56.1225ZM61.3351 65.2683C61.3351 65.1646 61.281 65.0011 61.2206 64.8732C61.1126 64.8392 61.0284 64.7323 60.9155 64.6545C60.7614 64.572 60.6374 64.538 60.4991 64.538C60.3593 64.538 60.2353 64.5299 60.1257 64.5104C59.9191 64.4894 59.6569 64.4748 59.2913 64.4651C58.9258 64.4554 58.5683 64.4392 58.1249 64.4214C57.7276 64.4003 57.3112 64.3809 56.8758 64.3615C56.4149 64.342 56.0001 64.3113 55.6394 64.2724C55.4264 64.3712 55.2484 64.525 55.1197 64.64C54.9894 64.8489 54.902 65.0076 54.902 65.2116C54.902 65.4917 55.0053 65.7411 55.1642 65.8269C55.3231 66.0034 55.4884 66.1249 55.7538 66.1492C56.105 66.2884 56.5245 66.3742 56.9902 66.4018C57.4558 66.4325 57.8515 66.4358 58.2282 66.4358C58.4332 66.4358 58.697 66.4358 59.0546 66.4309C59.3835 66.4212 59.7395 66.3759 60.0844 66.2965C60.4308 66.2155 60.7185 66.1232 60.9457 65.9743C61.2191 65.8026 61.3351 65.5727 61.3351 65.2683ZM57.966 54.364C57.424 54.364 56.9997 54.4676 56.6421 54.772C56.2862 55.0764 56.1098 55.5379 56.1098 56.0626C56.1098 56.6326 56.2766 57.1054 56.6135 57.3969C56.9489 57.6916 57.3859 57.8843 57.966 57.8843C58.484 57.8843 58.9497 57.6916 59.3629 57.3969C59.7316 57.1038 59.9382 56.631 59.9382 56.0302C59.9382 55.4667 59.7268 55.0505 59.3486 54.7332C58.9258 54.453 58.465 54.364 57.966 54.364Z" fill="#1A1A18"></path>
  <path d="M68.946 59.1457L68.9174 59.7011C68.9174 60.4055 69.1144 60.9819 69.4625 61.4256C69.8566 61.9697 70.3842 62.1948 71.1343 62.1948C71.3727 62.1948 71.6238 62.1333 71.8669 62.0134C72.091 61.9891 72.323 61.8256 72.5296 61.696C72.7124 61.5033 72.8649 61.3511 72.9905 61.0597C73.0906 60.867 73.1637 60.6387 73.1637 60.3763L76.2118 60.5804C76.2118 60.6986 76.1625 60.8168 76.1117 61.0597C76.0132 61.3398 75.8987 61.5908 75.7207 61.8855C75.5428 62.1802 75.3473 62.4846 75.0437 62.8085C74.7863 63.1307 74.4541 63.4174 74.0966 63.6716C73.6929 63.9242 73.2511 64.2076 72.7283 64.3306C72.2436 64.5379 71.6381 64.5638 71.0024 64.5638C70.1553 64.5638 69.3782 64.4715 68.6774 64.1881C67.9829 63.9064 67.3981 63.474 66.9038 62.9607C66.408 62.4069 66.0361 61.79 65.7501 61.0597C65.4926 60.3974 65.3623 59.5521 65.3623 58.7036C65.3623 57.8745 65.4783 57.0147 65.7262 56.3151C65.9821 55.5217 66.346 54.8578 66.8148 54.3218C67.2789 53.7858 67.878 53.3049 68.5423 52.9697C69.2527 52.6361 70.0441 52.5195 70.9166 52.5195C71.7382 52.5195 72.5185 52.6523 73.2622 53.015C74.0044 53.3794 74.6178 53.8554 75.1041 54.5372C75.5888 55.2237 75.9099 55.9832 76.0688 56.7216C76.2261 57.5571 76.2786 58.302 76.2786 59.1457H68.946ZM72.9746 57.1199C72.9539 56.7961 72.9015 56.4949 72.8602 56.2099C72.7728 55.9281 72.6822 55.682 72.5423 55.4019C72.4009 55.2092 72.2022 55.0489 71.9368 54.8918C71.7175 54.7331 71.4204 54.7185 71.0453 54.7185C70.6909 54.7185 70.381 54.7347 70.1108 54.8772C69.8613 55.0456 69.6293 55.1816 69.4625 55.3743C69.2972 55.6626 69.1748 55.9022 69.1049 56.184C68.9873 56.4657 68.9555 56.7783 68.9174 57.1216H72.9746V57.1199Z" fill="#1A1A18"></path>
  <path d="M78.4284 52.7219H81.5543V54.7169H81.575C81.931 53.9332 82.3426 53.4004 82.8575 53.028C83.3708 52.6588 84.0367 52.5195 84.871 52.5195C85.4336 52.5195 85.9215 52.5487 86.4252 52.7964C86.929 52.9503 87.3358 53.2887 87.6918 53.7842C87.8396 53.9931 87.9493 54.2214 88.0669 54.4934C88.1368 54.7655 88.2194 55.0553 88.2306 55.3662C88.2703 55.682 88.3005 55.9994 88.31 56.3152C88.3196 56.6309 88.3243 56.937 88.3243 57.1782V64.3614H84.9997V58.119C84.9997 57.8357 84.9997 57.5248 84.9997 57.1798C84.9997 56.8187 84.9679 56.49 84.8853 56.1969C84.8154 55.9055 84.658 55.6852 84.4546 55.4343C84.2274 55.2788 83.9111 55.1557 83.5043 55.1557C83.2071 55.1557 82.9433 55.2594 82.6684 55.3743C82.4395 55.5832 82.2377 55.7614 82.109 56.0042C81.9405 56.3459 81.8499 56.6908 81.7911 57.0325C81.7323 57.3742 81.7101 57.7385 81.7101 58.1207V64.363H78.4268V52.7219H78.4284Z" fill="#1A1A18"></path>
</svg>
